{
	"asset":{
		"generator":"Khronos glTF Blender I/O v4.1.62",
		"version":"2.0"
	},
	"scene":0,
	"scenes":[
		{
			"name":"Scene",
			"nodes":[
				0
			]
		}
	],
	"nodes":[
		{
			"mesh":0,
			"name":"detected_cells",
			"rotation":[
				0.7071068286895752,
				0,
				0,
				0.7071068286895752
			]
		}
	],
	"meshes":[
		{
			"name":"detected_cells",
			"primitives":[
				{
					"attributes":{
						"POSITION":0,
						"NORMAL":1
					},
					"indices":2
				}
			]
		}
	],
	"accessors":[
		{
			"bufferView":0,
			"componentType":5126,
			"count":15356,
			"max":[
				68.80470275878906,
				105.76100158691406,
				88.01719665527344
			],
			"min":[
				-66.73660278320312,
				-44.503700256347656,
				-78.9718017578125
			],
			"type":"VEC3"
		},
		{
			"bufferView":1,
			"componentType":5126,
			"count":15356,
			"type":"VEC3"
		},
		{
			"bufferView":2,
			"componentType":5123,
			"count":15360,
			"type":"SCALAR"
		}
	],
	"bufferViews":[
		{
			"buffer":0,
			"byteLength":184272,
			"byteOffset":0,
			"target":34962
		},
		{
			"buffer":0,
			"byteLength":184272,
			"byteOffset":184272,
			"target":34962
		},
		{
			"buffer":0,
			"byteLength":30720,
			"byteOffset":368544,
			"target":34963
		}
	],
	"buffers":[
		{
			"byteLength":399264,
			"uri":"detected_cell_2.0.bin"
		}
	]
}
